<?xml version="1.0" encoding="UTF-8" standalone="no"?>
<!-- Created with Inkscape (http://www.inkscape.org/) -->

<svg
   xmlns:dc="http://purl.org/dc/elements/1.1/"
   xmlns:cc="http://creativecommons.org/ns#"
   xmlns:rdf="http://www.w3.org/1999/02/22-rdf-syntax-ns#"
   xmlns:svg="http://www.w3.org/2000/svg"
   xmlns="http://www.w3.org/2000/svg"
   xmlns:sodipodi="http://sodipodi.sourceforge.net/DTD/sodipodi-0.dtd"
   xmlns:inkscape="http://www.inkscape.org/namespaces/inkscape"
   version="1.1"
   id="svg2"
   
   viewBox="0 0 16.639999 16.639999"
   sodipodi:docname="microphone.png.svg"
   inkscape:version="0.92.4 (f8dce91, 2019-08-02)">
  <metadata
     id="metadata8">
    <rdf:RDF>
      <cc:Work
         rdf:about="">
        <dc:format>image/svg+xml</dc:format>
        <dc:type
           rdf:resource="http://purl.org/dc/dcmitype/StillImage" />
        <dc:title></dc:title>
      </cc:Work>
    </rdf:RDF>
  </metadata>
  <defs
     id="defs6" />
  <sodipodi:namedview
     pagecolor="#ffffff"
     bordercolor="#666666"
     borderopacity="1"
     objecttolerance="10"
     gridtolerance="10"
     guidetolerance="10"
     inkscape:pageopacity="0"
     inkscape:pageshadow="2"
     inkscape:window-width="1366"
     inkscape:window-height="713"
     id="namedview4"
     showgrid="false"
     inkscape:zoom="14.182693"
     inkscape:cx="8.3199997"
     inkscape:cy="8.3199997"
     inkscape:window-x="0"
     inkscape:window-y="27"
     inkscape:window-maximized="1"
     inkscape:current-layer="svg2" />
  <g
     id="g12"
     transform="translate(0,0.03988225)">
    <path
       style="fill:#eaeaea;stroke-width:0.31999999"
       d="M 5.4399997,16.014691 C 2.444203,14.985881 0,11.528641 0,8.3199995 0,4.0622932 4.0622932,0 8.3199995,0 c 4.2577065,0 8.3199995,4.0622932 8.3199995,8.3199995 0,3.3198005 -2.625862,6.8932315 -5.73808,7.8087245 -2.224788,0.654445 -3.2888718,0.63223 -5.4619193,-0.114033 z"
       id="path22"
       inkscape:connector-curvature="0" />
    <path
       style="fill:#e7e7e7;stroke-width:0.31999999"
       d="M 5.4399997,16.014691 C 2.444203,14.985881 0,11.528641 0,8.3199995 0,4.0622932 4.0622932,0 8.3199995,0 c 4.2577065,0 8.3199995,4.0622932 8.3199995,8.3199995 0,3.2757695 -2.670296,6.9103495 -5.73808,7.8101885 -2.2259272,0.652906 -3.2899169,0.630407 -5.4619193,-0.115497 z"
       id="path20"
       inkscape:connector-curvature="0" />
    <path
       style="fill:#e6e6e6;stroke-width:0.31999999"
       d="M 5.4399997,16.014691 C 2.444203,14.985881 0,11.528641 0,8.3199995 0,5.0021213 2.6355206,1.4375155 5.7787715,0.50407027 7.8845941,-0.12129179 8.7373579,-0.12665117 10.755897,0.4727904 c 4.222394,1.2539163 6.684591,5.8920595 5.425384,10.2200226 -0.694534,2.387154 -3.006551,4.76782 -5.279362,5.436119 -2.2249499,0.654227 -3.2890206,0.63197 -5.4619193,-0.114241 z"
       id="path18"
       inkscape:connector-curvature="0" />
    <path
       style="fill:#e5e5e5;stroke-width:0.31999999"
       d="M 5.4399997,16.014691 C 2.444203,14.985881 0,11.528641 0,8.3199995 0,4.0622932 4.0622932,0 8.3199995,0 c 2.7999945,0 6.1142085,2.0665384 7.3248035,4.5672932 0.82191,1.6978408 0.969102,5.3137174 0.283023,6.9527058 -0.748666,1.788505 -3.312889,4.095134 -5.163362,4.644666 -2.0811253,0.618027 -3.1780881,0.587129 -5.3244643,-0.149974 z"
       id="path16"
       inkscape:connector-curvature="0" />
    <path
       style="fill:#000000;stroke-width:0.31999999"
       d="m 7.9999995,12.152079 c 0,-0.376997 -0.3010627,-0.763058 -0.7199999,-0.923276 C 6.3968908,10.891069 5.5885955,9.9992064 5.2962854,9.0399995 4.9840055,8.0152616 5.6369081,8.1360402 6.1454534,9.1970846 c 0.2312067,0.4823967 0.8150643,1.0662544 1.297461,1.2974614 1.123935,0.538688 2.4397157,-0.02074 3.0516316,-1.2974614 0.508545,-1.0610444 1.161448,-1.181823 0.849168,-0.1570851 -0.292311,0.9592069 -1.100606,1.8510695 -1.9837146,2.1888035 -0.4189372,0.160218 -0.7199999,0.546279 -0.7199999,0.923276 0,0.356356 -0.144,0.64792 -0.32,0.64792 -0.176,0 -0.32,-0.291564 -0.32,-0.64792 z M 7.2495957,9.3348023 C 6.450047,8.4513112 6.521286,5.3187133 7.3599996,4.4799997 7.7119995,4.1279998 8.1439995,3.8399998 8.3199995,3.8399998 c 0.176,0 0.608,0.288 0.9599999,0.6399999 C 10.161501,5.3615018 10.19775,8.6094462 9.3348023,9.3904033 8.5741998,10.078739 7.9067429,10.060942 7.2495957,9.3348023 Z"
       id="path14"
       inkscape:connector-curvature="0" />
  </g>
</svg>
