<?xml version="1.0" encoding="UTF-8" standalone="no"?>
<!-- Created with Inkscape (http://www.inkscape.org/) -->

<svg
   xmlns:dc="http://purl.org/dc/elements/1.1/"
   xmlns:cc="http://creativecommons.org/ns#"
   xmlns:rdf="http://www.w3.org/1999/02/22-rdf-syntax-ns#"
   xmlns:svg="http://www.w3.org/2000/svg"
   xmlns="http://www.w3.org/2000/svg"
   xmlns:sodipodi="http://sodipodi.sourceforge.net/DTD/sodipodi-0.dtd"
   xmlns:inkscape="http://www.inkscape.org/namespaces/inkscape"
   version="1.1"
   id="svg2"
   viewBox="0 0 85.333336 85.333336"
   sodipodi:docname="фотоаппарат.svg"
   inkscape:version="0.92.4 (f8dce91, 2019-08-02)">
  <metadata
     id="metadata8">
    <rdf:RDF>
      <cc:Work
         rdf:about="">
        <dc:format>image/svg+xml</dc:format>
        <dc:type
           rdf:resource="http://purl.org/dc/dcmitype/StillImage" />
        <dc:title></dc:title>
      </cc:Work>
    </rdf:RDF>
  </metadata>
  <defs
     id="defs6" />
  <sodipodi:namedview
     pagecolor="#ffffff"
     bordercolor="#666666"
     borderopacity="1"
     objecttolerance="10"
     gridtolerance="10"
     guidetolerance="10"
     inkscape:pageopacity="0"
     inkscape:pageshadow="2"
     inkscape:window-width="1366"
     inkscape:window-height="713"
     id="namedview4"
     showgrid="false"
     inkscape:zoom="2.7656249"
     inkscape:cx="42.666668"
     inkscape:cy="42.666668"
     inkscape:window-x="0"
     inkscape:window-y="27"
     inkscape:window-maximized="1"
     inkscape:current-layer="svg2" />
  <path
     style="fill:#000000;stroke-width:1.33333337"
     d="M 29.356657,83.317284 C 14.877995,78.143814 5.6428148,68.408184 1.4135248,53.859938 -2.5144852,40.348058 1.9394408,23.784688 12.347256,13.199307 28.364699,-3.0914088 55.624071,-3.1326908 72.142605,13.108747 88.433319,29.126191 88.474601,56.385562 72.233155,72.904096 61.487469,83.833124 43.217923,88.270144 29.356657,83.317284 Z m 28.501111,-4.30256 C 88.891639,65.681252 89.177753,21.328321 58.319503,7.4376202 32.320817,-4.2655688 2.9553338,14.835822 3.2739098,43.243174 3.5924998,71.651828 31.866941,90.181494 57.857768,79.014724 Z M 21.778882,56.975722 c -1.060395,-2.763344 -1.070144,-21.059289 -0.01269,-23.81497 0.565435,-1.473497 2.547713,-2.109049 6.578103,-2.109049 5.302053,0 5.80292,-0.296658 6.190683,-3.666667 0.407978,-3.545715 0.68579,-3.666667 8.421896,-3.666667 7.698199,0 8.015663,0.135696 8.415169,3.596955 0.37719,3.267893 0.987075,3.633825 6.666667,4 l 6.251498,0.403045 v 13.333334 13.333334 l -20.84466,0.366401 C 25.315097,59.070132 22.493855,58.838918 21.778882,56.975722 Z M 60.956875,45.051703 v -10 h -18 -18.000001 v 10 10 h 18.000001 18 z m -23.948061,5.748586 c -1.495233,-1.604946 -2.718606,-4.200358 -2.718606,-5.767582 0,-3.622448 5.279901,-8.647671 9.085935,-8.647671 3.911565,0 8.247399,4.556252 8.247399,8.666667 0,7.581674 -9.445578,11.297015 -14.614728,5.748586 z m 9.509739,-1.955236 c 3.11109,-2.815497 3.080818,-4.798598 -0.117426,-7.692973 -1.974147,-1.786577 -3.152139,-1.993744 -5.176468,-0.910356 -3.680846,1.969928 -4.395675,4.700703 -2.091591,7.990243 2.378221,3.395387 4.148681,3.542356 7.385488,0.613086 z m 2.438322,-19.79335 c 0,-1.481482 -1.555556,-2 -6,-2 -4.444445,0 -6.000001,0.518518 -6.000001,2 0,1.481481 1.555556,2 6.000001,2 4.444444,0 6,-0.518519 6,-2 z"
     id="path48"
     inkscape:connector-curvature="0" />
</svg>
