<?xml version="1.0" encoding="UTF-8" standalone="no"?>
<!-- Created with Inkscape (http://www.inkscape.org/) -->

<svg xmlns:dc="http://purl.org/dc/elements/1.1/" 
   xmlns:cc="http://creativecommons.org/ns#" 
   xmlns:rdf="http://www.w3.org/1999/02/22-rdf-syntax-ns#" 
   xmlns:svg="http://www.w3.org/2000/svg" 
   xmlns="http://www.w3.org/2000/svg" 
   xmlns:sodipodi="http://sodipodi.sourceforge.net/DTD/sodipodi-0.dtd" 
   xmlns:inkscape="http://www.inkscape.org/namespaces/inkscape" version="1.1" id="svg2" viewBox="0 0 9.9200001 9.9200001" sodipodi:docname="plus.svg" inkscape:version="0.92.4 (f8dce91, 2019-08-02)">
   <metadata id="metadata8">
      <rdf:RDF>
         <cc:Work rdf:about="">
            <dc:format>image/svg+xml</dc:format>
            <dc:type rdf:resource="http://purl.org/dc/dcmitype/StillImage" />
            <dc:title></dc:title>
         </cc:Work>
      </rdf:RDF>
   </metadata>
   <defs id="defs6" />
   <sodipodi:namedview pagecolor="#ffffff" bordercolor="#666666" borderopacity="1" objecttolerance="10" gridtolerance="10" guidetolerance="10" inkscape:pageopacity="0" inkscape:pageshadow="2" inkscape:window-width="1366" inkscape:window-height="713" id="namedview4" showgrid="false" inkscape:zoom="23.790322" inkscape:cx="4.96" inkscape:cy="4.96" inkscape:window-x="0" inkscape:window-y="27" inkscape:window-maximized="1" inkscape:current-layer="svg2" />
   <g id="g96" transform="translate(11.012882,1.5552541)">
      <path style="fill:#fecb00;stroke-width:0.31999999" d="M -7.5374311,7.7353921 -8.292882,7.1060385 -6.1183364,7.0953921 c 1.8741991,-0.00917 2.2830318,-0.1191325 2.9600001,-0.7961005 0.676968,-0.6769683 0.7869248,-1.085801 0.7961005,-2.9600001 l 0.010646,-2.1745456 0.6293536,0.7554509 c 0.4823318,0.5789715 0.6293539,1.2364714 0.6293539,2.8145456 0,1.7595325 -0.1142698,2.1733642 -0.7854544,2.8445492 -0.671185,0.6711846 -1.0850167,0.7854544 -2.8445492,0.7854544 -1.5780742,0 -2.2355741,-0.1470221 -2.8145452,-0.6293539 z" id="path102" inkscape:connector-curvature="0" />
      <path style="fill:#fe7a00;stroke-width:0.31999999" d="M -8.8174311,6.4553921 -9.572882,5.8260385 -7.3983364,5.8153921 c 1.8741991,-0.00917 2.2830317,-0.1191325 2.9600001,-0.7961005 0.676968,-0.6769684 0.7869248,-1.085801 0.7961005,-2.9600001 l 0.010646,-2.17454559 0.6293536,0.75545089 c 0.4823318,0.5789716 0.6293539,1.2364714 0.6293539,2.8145456 0,1.7595325 -0.1142698,2.1733642 -0.7854544,2.8445492 -0.671185,0.6711846 -1.0850167,0.7854544 -2.8445492,0.7854544 -1.5780742,0 -2.235574,-0.1470221 -2.8145452,-0.6293539 z" id="path100" inkscape:connector-curvature="0" />
      <path style="fill:#4132fe;stroke-width:0.31999999" d="m -10.227427,5.0192916 c -0.685295,-0.6852944 -0.785455,-1.072952 -0.785455,-3.0400001 0,-1.82787893 0.121118,-2.37566386 0.64,-2.89454559 0.5188817,-0.51888171 1.0666667,-0.64000001 2.8945456,-0.64000001 1.9670481,0 2.3547057,0.1001603 3.0400001,0.78545457 0.6750425,0.67504282 0.7854544,1.08193041 0.7854544,2.89454543 0,1.8126151 -0.1104119,2.2195028 -0.7854544,2.8945457 -0.6750429,0.6750425 -1.0819306,0.7854544 -2.8945457,0.7854544 -1.812615,0 -2.2195026,-0.1104119 -2.894545,-0.7854544 z M -6.852882,3.564746 c 0,-0.8533335 0.1066666,-0.9600001 0.9600001,-0.9600001 0.64,0 0.96,-0.16 0.96,-0.48 0,-0.32 -0.32,-0.48 -0.96,-0.48 -0.8533335,0 -0.9600001,-0.1066666 -0.9600001,-0.95999998 0,-0.64 -0.16,-0.96000001 -0.48,-0.96000001 -0.32,0 -0.48,0.32000001 -0.48,0.96000001 0,0.85333338 -0.1066666,0.95999998 -0.96,0.95999998 -0.64,0 -0.96,0.16 -0.96,0.48 0,0.32 0.32,0.48 0.96,0.48 0.8533334,0 0.96,0.1066666 0.96,0.9600001 0,0.64 0.16,0.96 0.48,0.96 0.32,0 0.48,-0.32 0.48,-0.96 z" id="path98" inkscape:connector-curvature="0" />
   </g>
</svg>
