<?xml version="1.0" encoding="UTF-8" standalone="no"?>
<!-- Created with Inkscape (http://www.inkscape.org/) -->

<svg
   xmlns:dc="http://purl.org/dc/elements/1.1/"
   xmlns:cc="http://creativecommons.org/ns#"
   xmlns:rdf="http://www.w3.org/1999/02/22-rdf-syntax-ns#"
   xmlns:svg="http://www.w3.org/2000/svg"
   xmlns="http://www.w3.org/2000/svg"
   xmlns:sodipodi="http://sodipodi.sourceforge.net/DTD/sodipodi-0.dtd"
   xmlns:inkscape="http://www.inkscape.org/namespaces/inkscape"
   version="1.1"
   id="svg85"
  
   viewBox="0 0 16.959999 16.639999"
   sodipodi:docname="setttings.svg"
   inkscape:version="0.92.4 (f8dce91, 2019-08-02)">
  <metadata
     id="metadata91">
    <rdf:RDF>
      <cc:Work
         rdf:about="">
        <dc:format>image/svg+xml</dc:format>
        <dc:type
           rdf:resource="http://purl.org/dc/dcmitype/StillImage" />
        <dc:title></dc:title>
      </cc:Work>
    </rdf:RDF>
  </metadata>
  <defs
     id="defs89" />
  <sodipodi:namedview
     pagecolor="#ffffff"
     bordercolor="#666666"
     borderopacity="1"
     objecttolerance="10"
     gridtolerance="10"
     guidetolerance="10"
     inkscape:pageopacity="0"
     inkscape:pageshadow="2"
     inkscape:window-width="1366"
     inkscape:window-height="713"
     id="namedview87"
     showgrid="false"
     inkscape:zoom="14.182693"
     inkscape:cx="-2.660339"
     inkscape:cy="8.3199997"
     inkscape:window-x="0"
     inkscape:window-y="27"
     inkscape:window-maximized="1"
     inkscape:current-layer="svg85" />
  <g
     id="g107"
     transform="translate(0,0.03986307)">
    <path
       style="fill:#e5e5e5;stroke-width:0.31999999"
       d="M 5.4399997,16.014691 C 2.444203,14.985881 0,11.528641 0,8.3199995 0,3.9849857 4.0616199,0 8.4799995,0 c 4.4183795,0 8.4799995,3.9849857 8.4799995,8.3199995 0,3.3198005 -2.625862,6.8932315 -5.73808,7.8087245 -2.2411941,0.659271 -3.6086615,0.632302 -5.7819193,-0.114033 z m 4.9599993,-5.134692 c 0.108774,-0.176 0.549273,-0.32 0.978886,-0.32 0.48099,0 0.781114,-0.184428 0.781114,-0.48 0,-0.2677445 -0.284927,-0.4799996 -0.644342,-0.4799996 -0.354388,0 -0.930388,-0.1786387 -1.28,-0.396975 -0.5059427,-0.3159667 -0.7653724,-0.3159667 -1.2713154,0 -0.3496119,0.2183363 -1.4296118,0.396975 -2.3999999,0.396975 -1.3549708,0 -1.764342,0.1113719 -1.764342,0.4799996 0,0.372804 0.4245683,0.48 1.9011145,0.48 1.045613,0 1.9901112,0.144 2.0988853,0.32 0.1087741,0.176 0.468774,0.32 0.7999999,0.32 0.3312259,0 0.6912256,-0.144 0.7999996,-0.32 z M 6.8799996,7.6799995 c 0.1087741,-0.176 1.3412722,-0.3199999 2.7388853,-0.3199999 2.0454351,0 2.5411141,-0.093631 2.5411141,-0.48 0,-0.3840771 -0.480482,-0.48 -2.4043417,-0.48 -1.322388,0 -2.6713128,-0.1667261 -2.9976107,-0.3705027 C 5.6249405,5.3218605 4.3006116,6.5326972 5.1233818,7.5240747 5.5737821,8.0667736 6.5854601,8.1565745 6.8799996,7.6799995 Z"
       id="path111"
       inkscape:connector-curvature="0" />
    <path
       style="fill:#000000;stroke-width:0.31999999"
       d="m 8.7999995,10.879999 c -0.1087741,-0.176 -1.0532723,-0.32 -2.0988853,-0.32 -1.4765462,0 -1.9011145,-0.107196 -1.9011145,-0.48 0,-0.3686277 0.4093712,-0.4799996 1.764342,-0.4799996 0.9703881,0 2.050388,-0.1786387 2.3999999,-0.396975 0.505943,-0.3159667 0.7653727,-0.3159667 1.2713154,0 0.349612,0.2183363 0.925612,0.396975 1.28,0.396975 0.359415,0 0.644342,0.2122551 0.644342,0.4799996 0,0.295572 -0.300124,0.48 -0.781114,0.48 -0.429613,0 -0.870112,0.144 -0.978886,0.32 -0.108774,0.176 -0.4687737,0.32 -0.7999996,0.32 -0.3312259,0 -0.6912258,-0.144 -0.7999999,-0.32 z M 5.1233818,7.5240747 C 4.3006116,6.5326972 5.6249405,5.3218605 6.7580466,6.0294969 c 0.3262979,0.2037766 1.6752227,0.3705027 2.9976107,0.3705027 1.9238597,0 2.4043417,0.095923 2.4043417,0.48 0,0.3863692 -0.495679,0.48 -2.5411141,0.48 -1.3976131,0 -2.6301112,0.1439999 -2.7388853,0.3199999 C 6.5854601,8.1565745 5.5737821,8.0667736 5.1233818,7.5240747 Z"
       id="path109"
       inkscape:connector-curvature="0" />
  </g>
</svg>
